<svg xmlns="http://www.w3.org/2000/svg" xmlns:xlink="http://www.w3.org/1999/xlink">

<!-- === SVG/ === -->

<symbol id="icon-phone" viewBox="0 0 24 24">
<path d="M22.293 0.293l-5.293 5.293v-3.586c0-0.552-0.448-1-1-1s-1 0.448-1 1v6c0 0.256 0.098 0.512 0.293 0.707 0.096 0.096 0.206 0.168 0.324 0.217s0.247 0.076 0.383 0.076h6c0.552 0 1-0.448 1-1s-0.448-1-1-1h-3.586l5.293-5.293c0.391-0.391 0.391-1.024 0-1.414s-1.024-0.391-1.414 0zM23 16.92c0.016-0.714-0.236-1.404-0.673-1.943-0.46-0.566-1.129-0.967-1.925-1.080-0.8-0.098-1.695-0.314-2.586-0.646-0.433-0.159-0.893-0.218-1.344-0.174-0.663 0.064-1.307 0.349-1.819 0.855l-0.72 0.72c-1.77-1.117-3.36-2.667-4.583-4.589l0.726-0.726c0.322-0.33 0.563-0.726 0.707-1.156 0.212-0.632 0.214-1.336-0.039-2.011-0.289-0.753-0.518-1.644-0.644-2.595-0.104-0.714-0.456-1.345-0.963-1.804-0.539-0.486-1.256-0.779-2.027-0.771h-2.996c-0.088 0-0.182 0.004-0.273 0.012-0.824 0.075-1.542 0.478-2.033 1.066s-0.758 1.367-0.683 2.199c0.3 3.076 1.365 6.243 3.216 9.102 1.502 2.413 3.648 4.623 6.298 6.306 2.568 1.697 5.684 2.862 9.086 3.231 0.092 0.009 0.191 0.013 0.288 0.013 0.828-0.003 1.578-0.343 2.118-0.887s0.873-1.297 0.87-2.121zM21 16.92v3c0.001 0.28-0.109 0.53-0.29 0.712s-0.429 0.295-0.706 0.296c-3.149-0.336-5.961-1.391-8.263-2.912-2.428-1.543-4.359-3.537-5.702-5.694-1.697-2.62-2.655-5.481-2.924-8.238-0.024-0.268 0.064-0.526 0.229-0.724s0.403-0.33 0.678-0.355l3.088-0.005c0.271-0.003 0.507 0.094 0.687 0.256 0.17 0.154 0.288 0.366 0.323 0.608 0.142 1.072 0.408 2.117 0.757 3.025 0.081 0.216 0.080 0.447 0.010 0.658-0.049 0.145-0.131 0.281-0.242 0.395l-1.262 1.261c-0.324 0.324-0.379 0.814-0.162 1.201 1.584 2.785 3.839 4.957 6.381 6.378 0.397 0.222 0.882 0.144 1.195-0.166l1.27-1.27c0.166-0.164 0.377-0.257 0.598-0.279 0.152-0.015 0.31 0.005 0.459 0.060 1.022 0.381 2.070 0.636 3.034 0.754 0.241 0.034 0.462 0.166 0.615 0.355 0.147 0.181 0.231 0.412 0.226 0.682z"></path>
</symbol>

<symbol id="icon-location" viewBox="0 0 20 20">
<path d="M10 20s-7-9.13-7-13c0-3.866 3.134-7 7-7s7 3.134 7 7v0c0 3.87-7 13-7 13zM10 9c1.105 0 2-0.895 2-2s-0.895-2-2-2v0c-1.105 0-2 0.895-2 2s0.895 2 2 2v0z"></path>
</symbol>

<symbol id="icon-group" viewBox="0 0 30 28">
<path d="M9.266 14c-1.625 0.047-3.094 0.75-4.141 2h-2.094c-1.563 0-3.031-0.75-3.031-2.484 0-1.266-0.047-5.516 1.937-5.516 0.328 0 1.953 1.328 4.062 1.328 0.719 0 1.406-0.125 2.078-0.359-0.047 0.344-0.078 0.688-0.078 1.031 0 1.422 0.453 2.828 1.266 4zM26 23.953c0 2.531-1.672 4.047-4.172 4.047h-13.656c-2.5 0-4.172-1.516-4.172-4.047 0-3.531 0.828-8.953 5.406-8.953 0.531 0 2.469 2.172 5.594 2.172s5.063-2.172 5.594-2.172c4.578 0 5.406 5.422 5.406 8.953zM10 4c0 2.203-1.797 4-4 4s-4-1.797-4-4 1.797-4 4-4 4 1.797 4 4zM21 10c0 3.313-2.688 6-6 6s-6-2.688-6-6 2.688-6 6-6 6 2.688 6 6zM30 13.516c0 1.734-1.469 2.484-3.031 2.484h-2.094c-1.047-1.25-2.516-1.953-4.141-2 0.812-1.172 1.266-2.578 1.266-4 0-0.344-0.031-0.688-0.078-1.031 0.672 0.234 1.359 0.359 2.078 0.359 2.109 0 3.734-1.328 4.062-1.328 1.984 0 1.937 4.25 1.937 5.516zM28 4c0 2.203-1.797 4-4 4s-4-1.797-4-4 1.797-4 4-4 4 1.797 4 4z"></path>
</symbol>

<symbol id="icon-bed" viewBox="0 0 32 28">
<path d="M4 16h27c0.547 0 1 0.453 1 1v7h-4v-4h-24v4h-4v-19c0-0.547 0.453-1 1-1h2c0.547 0 1 0.453 1 1v11zM13 11c0-2.203-1.797-4-4-4s-4 1.797-4 4 1.797 4 4 4 4-1.797 4-4zM32 15v-1c0-3.313-2.688-6-6-6h-11c-0.547 0-1 0.453-1 1v6h18z"></path>
</symbol>

<symbol id="icon-drink" viewBox="0 0 20 20">
<path d="M17.538 2.639c0.394-0.545 0.462-1.639 0.462-1.639h-16c0 0 0.068 1.094 0.462 1.639l6.538 8.361v6h-2c-2 0-2 2-2 2h10c0 0 0-2-2-2h-2v-6l6.538-8.361zM9.4 6c0-0.885 0.716-1.6 1.6-1.6s1.6 0.715 1.6 1.6c0 0.883-0.716 1.6-1.6 1.6s-1.6-0.717-1.6-1.6z"></path>
</symbol>

<symbol id="icon-sort" viewBox="0 0 32 32">
<path d="M14 4v-0.5c0-0.825-0.675-1.5-1.5-1.5h-5c-0.825 0-1.5 0.675-1.5 1.5v0.5h-6v4h6v0.5c0 0.825 0.675 1.5 1.5 1.5h5c0.825 0 1.5-0.675 1.5-1.5v-0.5h18v-4h-18zM8 8v-4h4v4h-4zM26 13.5c0-0.825-0.675-1.5-1.5-1.5h-5c-0.825 0-1.5 0.675-1.5 1.5v0.5h-18v4h18v0.5c0 0.825 0.675 1.5 1.5 1.5h5c0.825 0 1.5-0.675 1.5-1.5v-0.5h6v-4h-6v-0.5zM20 18v-4h4v4h-4zM14 23.5c0-0.825-0.675-1.5-1.5-1.5h-5c-0.825 0-1.5 0.675-1.5 1.5v0.5h-6v4h6v0.5c0 0.825 0.675 1.5 1.5 1.5h5c0.825 0 1.5-0.675 1.5-1.5v-0.5h18v-4h-18v-0.5zM8 28v-4h4v4h-4z"></path>
</symbol>

<symbol id="icon-close" viewBox="0 0 20 20">
<path d="M10 8.586l-7.071-7.071-1.414 1.414 7.071 7.071-7.071 7.071 1.414 1.414 7.071-7.071 7.071 7.071 1.414-1.414-7.071-7.071 7.071-7.071-1.414-1.414-7.071 7.071z"></path>
</symbol>

<symbol id="icon-add" viewBox="0 0 20 20">
<path d="M11 9h4v2h-4v4h-2v-4h-4v-2h4v-4h2v4zM10 20c-5.523 0-10-4.477-10-10s4.477-10 10-10v0c5.523 0 10 4.477 10 10s-4.477 10-10 10v0zM10 18c4.418 0 8-3.582 8-8s-3.582-8-8-8v0c-4.418 0-8 3.582-8 8s3.582 8 8 8v0z"></path>
</symbol>

<symbol id="icon-star" viewBox="0 0 32 32">
<path d="M32 12.408l-11.056-1.607-4.944-10.018-4.944 10.018-11.056 1.607 8 7.798-1.889 11.011 9.889-5.199 9.889 5.199-1.889-11.011 8-7.798z"></path>
</symbol>

<symbol id="icon-consult" viewBox="0 0 24 24">
<path d="M12 3h9v6.984h-6l-3 3v-9.984zM20.016 15.516q0.422 0 0.703 0.281t0.281 0.703v3.516q0 0.422-0.281 0.703t-0.703 0.281q-7.031 0-12.023-4.992t-4.992-12.023q0-0.422 0.281-0.703t0.703-0.281h3.516q0.422 0 0.703 0.281t0.281 0.703v0.047q0 1.922 0.563 3.516 0.188 0.609-0.234 1.031l-2.203 2.203q0.938 1.781 2.883 3.727t3.727 2.883l2.203-2.203q0.328-0.328 0.703-0.328 0.141 0 0.328 0.094 1.688 0.563 3.563 0.563z"></path>
</symbol>

<!-- === /SVG === -->

</svg>