<svg xmlns="http://www.w3.org/2000/svg" xmlns:xlink="http://www.w3.org/1999/xlink">

<!-- === SVG/ === -->

<symbol id="icon-phone" viewBox="0 0 488 488">
<path d="M363.06,209.3c-2.1,0.5-3.6,2.1-5.7,2.6c-2.6,1-4.7,1.6-7.3,2.1c-3.1,0.5-5.2-1.6-6.2-4.2c-0.5-2.6-1-4.7-0.5-7.3
			c0.5-4.7,1.6-9.4,2.6-14.1c2.6-14.1,5.2-28.6,7.8-42.7c0.5-3.6,1.6-7.8,1-11.5c0-4.7-3.1-6.8-7.8-6.8c-6.2,0-13,0-19.3,0
			s-12.5,0-18.2,0c-1.6,0-3.1,0-4.7,0.5c-2.6,0.5-4.2,2.1-4.7,4.2c0,1.6,1,3.6,3.6,4.7c2.1,0.5,4.2,1,6.8,1c5.2,0.5,6.8,2.6,6.8,7.8
			c0,1,0,1.6,0,2.6c-2.1,12.5-4.2,25-6.8,37.5c-1,7.3-2.1,14.6-3.1,21.3c-1.6,10.4,8.9,20.3,16.7,21.3c4.7,0.5,9.9,1,14.6,1
			c10.4,0,19.3-4.7,26.6-12c1-1,2.6-3.1,2.6-4.7C368.26,209.9,366.16,207.8,363.06,209.3z"/>
		<path d="M443.26,45.3c-59.9-60.4-157.3-60.4-217.1,0c-57.8,57.8-59.9,150-6.2,210.4l1,1c-5.7,12.5-16.1,28.1-31.8,35.9
			c-5.2,2.6-4.2,10.4,1.6,11.5c17.7,2.6,42.7,0,65.6-17.7l0.5,0.5c58.8,34.4,135.9,26.6,186.4-24
			C503.16,202.6,503.16,105.2,443.26,45.3z M334.96,271.8c-65.1,0-117.7-52.6-117.7-117.7s52.6-117.6,117.7-117.6
			s117.7,52.6,117.7,117.7S400.06,271.8,334.96,271.8z"/>
		<path d="M288.56,359.3c-12-12.5-27.6-12.5-40.1,0c-9.4,9.4-18.7,18.7-28.1,28.1c-2.6,2.6-4.7,3.1-7.8,1.6
			c-5.7-3.6-12.5-6.2-18.2-9.9c-27.1-17.2-50-39.1-70.3-64c-9.9-12.5-18.7-25.5-25-40.6c-1-3.1-1-4.7,1.6-7.3
			c9.9-8.9,18.7-18.2,28.1-27.6c13-13,13-28.1,0-41.1c-7.8-7.8-15.1-15.1-22.4-22.4c-7.8-7.8-15.1-15.6-22.9-22.9
			c-12-12-27.6-12-40.1,0c-9.4,9.4-18.7,18.7-28.1,28.1c-8.9,8.9-13.5,19.3-14.6,31.2c-1.6,19.3,3.1,38,9.9,56.2
			c14.1,38,35.4,70.8,60.9,101.5c34.9,41.7,76.5,74.5,125,97.9c21.9,10.4,44.3,18.7,68.2,20.3c17.2,1,31.8-3.6,43.7-16.7
			c7.8-9.4,17.2-17.2,25.5-26c12.5-13,12.5-28.6,0-41.1C318.76,389.5,303.66,374.4,288.56,359.3z"/>
		<path d="M338.56,118.2c10.9,0,19.8-8.9,19.8-19.8s-8.9-20.3-19.8-20.3s-19.8,8.9-20.3,19.8
			C318.76,109.4,327.66,118.2,338.56,118.2z"/>
</symbol>

<symbol id="icon-location" viewBox="0 0 20 20">
<path d="M10 20s-7-9.13-7-13c0-3.866 3.134-7 7-7s7 3.134 7 7v0c0 3.87-7 13-7 13zM10 9c1.105 0 2-0.895 2-2s-0.895-2-2-2v0c-1.105 0-2 0.895-2 2s0.895 2 2 2v0z"></path>
</symbol>

<symbol id="icon-group" viewBox="0 0 30 28">
<path d="M9.266 14c-1.625 0.047-3.094 0.75-4.141 2h-2.094c-1.563 0-3.031-0.75-3.031-2.484 0-1.266-0.047-5.516 1.937-5.516 0.328 0 1.953 1.328 4.062 1.328 0.719 0 1.406-0.125 2.078-0.359-0.047 0.344-0.078 0.688-0.078 1.031 0 1.422 0.453 2.828 1.266 4zM26 23.953c0 2.531-1.672 4.047-4.172 4.047h-13.656c-2.5 0-4.172-1.516-4.172-4.047 0-3.531 0.828-8.953 5.406-8.953 0.531 0 2.469 2.172 5.594 2.172s5.063-2.172 5.594-2.172c4.578 0 5.406 5.422 5.406 8.953zM10 4c0 2.203-1.797 4-4 4s-4-1.797-4-4 1.797-4 4-4 4 1.797 4 4zM21 10c0 3.313-2.688 6-6 6s-6-2.688-6-6 2.688-6 6-6 6 2.688 6 6zM30 13.516c0 1.734-1.469 2.484-3.031 2.484h-2.094c-1.047-1.25-2.516-1.953-4.141-2 0.812-1.172 1.266-2.578 1.266-4 0-0.344-0.031-0.688-0.078-1.031 0.672 0.234 1.359 0.359 2.078 0.359 2.109 0 3.734-1.328 4.062-1.328 1.984 0 1.937 4.25 1.937 5.516zM28 4c0 2.203-1.797 4-4 4s-4-1.797-4-4 1.797-4 4-4 4 1.797 4 4z"></path>
</symbol>

<symbol id="icon-bed" viewBox="0 0 32 28">
<path d="M4 16h27c0.547 0 1 0.453 1 1v7h-4v-4h-24v4h-4v-19c0-0.547 0.453-1 1-1h2c0.547 0 1 0.453 1 1v11zM13 11c0-2.203-1.797-4-4-4s-4 1.797-4 4 1.797 4 4 4 4-1.797 4-4zM32 15v-1c0-3.313-2.688-6-6-6h-11c-0.547 0-1 0.453-1 1v6h18z"></path>
</symbol>

<symbol id="icon-drink" viewBox="0 0 407 407">
<path d="M358.744,82.889h-39.517l10.459-20.993l43.511-35.239c6.438-5.214,7.43-14.659,2.215-21.097s-14.66-7.431-21.099-2.215
			l-46.041,37.29c-1.668,1.351-3.026,3.045-3.983,4.967L285.71,82.89h-98.976c-8.192-35.493-40.032-62.043-77.977-62.043
			c-44.136,0-80.043,35.907-80.043,80.043c0,44.136,35.907,80.043,80.043,80.043c8.426,0,16.693-1.318,24.567-3.855l77.926,106.346
			v84.047h-40c-11.046,0-20,8.954-20,20s8.954,20,20,20H291.25c11.047,0,20-8.954,20-20s-8.953-20-20-20H251.25v-84.047
			l123.626-168.712c4.453-6.078,5.113-14.144,1.705-20.865C373.175,87.125,366.281,82.889,358.744,82.889z M108.757,150.846
			c-27.546,0-49.957-22.411-49.957-49.957c0-27.546,22.411-49.957,49.957-49.957c21.202,0,39.348,13.282,46.588,31.957h-51.588
			c-7.536,0-14.431,4.235-17.838,10.957c-3.408,6.721-2.748,14.787,1.706,20.865l26.282,35.868
			C112.205,150.752,110.486,150.846,108.757,150.846z"/>
</symbol>

<symbol id="icon-sort" viewBox="0 0 32 32">
<path d="M14 4v-0.5c0-0.825-0.675-1.5-1.5-1.5h-5c-0.825 0-1.5 0.675-1.5 1.5v0.5h-6v4h6v0.5c0 0.825 0.675 1.5 1.5 1.5h5c0.825 0 1.5-0.675 1.5-1.5v-0.5h18v-4h-18zM8 8v-4h4v4h-4zM26 13.5c0-0.825-0.675-1.5-1.5-1.5h-5c-0.825 0-1.5 0.675-1.5 1.5v0.5h-18v4h18v0.5c0 0.825 0.675 1.5 1.5 1.5h5c0.825 0 1.5-0.675 1.5-1.5v-0.5h6v-4h-6v-0.5zM20 18v-4h4v4h-4zM14 23.5c0-0.825-0.675-1.5-1.5-1.5h-5c-0.825 0-1.5 0.675-1.5 1.5v0.5h-6v4h6v0.5c0 0.825 0.675 1.5 1.5 1.5h5c0.825 0 1.5-0.675 1.5-1.5v-0.5h18v-4h-18v-0.5zM8 28v-4h4v4h-4z"></path>
</symbol>

<symbol id="icon-close" viewBox="0 0 20 20">
<path d="M10 8.586l-7.071-7.071-1.414 1.414 7.071 7.071-7.071 7.071 1.414 1.414 7.071-7.071 7.071 7.071 1.414-1.414-7.071-7.071 7.071-7.071-1.414-1.414-7.071 7.071z"></path>
</symbol>

<symbol id="icon-add" viewBox="0 0 20 20">
<path d="M11 9h4v2h-4v4h-2v-4h-4v-2h4v-4h2v4zM10 20c-5.523 0-10-4.477-10-10s4.477-10 10-10v0c5.523 0 10 4.477 10 10s-4.477 10-10 10v0zM10 18c4.418 0 8-3.582 8-8s-3.582-8-8-8v0c-4.418 0-8 3.582-8 8s3.582 8 8 8v0z"></path>
</symbol>

<symbol id="icon-star" viewBox="0 0 32 32">
<path d="M32 12.408l-11.056-1.607-4.944-10.018-4.944 10.018-11.056 1.607 8 7.798-1.889 11.011 9.889-5.199 9.889 5.199-1.889-11.011 8-7.798z"></path>
</symbol>

<symbol id="icon-consult" viewBox="0 0 24 24">
<path d="M12 3h9v6.984h-6l-3 3v-9.984zM20.016 15.516q0.422 0 0.703 0.281t0.281 0.703v3.516q0 0.422-0.281 0.703t-0.703 0.281q-7.031 0-12.023-4.992t-4.992-12.023q0-0.422 0.281-0.703t0.703-0.281h3.516q0.422 0 0.703 0.281t0.281 0.703v0.047q0 1.922 0.563 3.516 0.188 0.609-0.234 1.031l-2.203 2.203q0.938 1.781 2.883 3.727t3.727 2.883l2.203-2.203q0.328-0.328 0.703-0.328 0.141 0 0.328 0.094 1.688 0.563 3.563 0.563z"></path>
</symbol>


<symbol id="icon-email" viewBox="0 0 490 490">
<path d="M420.95,61.8C376.25,20.6,320.65,0,254.25,0c-69.8,0-129.3,23.4-178.4,70.3s-73.7,105.2-73.7,175
		c0,66.9,23.4,124.4,70.1,172.6c46.9,48.2,109.9,72.3,189.2,72.3c47.8,0,94.7-9.8,140.7-29.5c15-6.4,22.3-23.6,16.2-38.7l0,0
		c-6.3-15.6-24.1-22.8-39.6-16.2c-40,17.2-79.2,25.8-117.4,25.8c-60.8,0-107.9-18.5-141.3-55.6c-33.3-37-50-80.5-50-130.4
		c0-54.2,17.9-99.4,53.6-135.7c35.6-36.2,79.5-54.4,131.5-54.4c47.9,0,88.4,14.9,121.4,44.7s49.5,67.3,49.5,112.5
		c0,30.9-7.6,56.7-22.7,77.2c-15.1,20.6-30.8,30.8-47.1,30.8c-8.8,0-13.2-4.7-13.2-14.2c0-7.7,0.6-16.7,1.7-27.1l18.6-152.1h-64
		l-4.1,14.9c-16.3-13.3-34.2-20-53.6-20c-30.8,0-57.2,12.3-79.1,36.8c-22,24.5-32.9,56.1-32.9,94.7c0,37.7,9.7,68.2,29.2,91.3
		c19.5,23.2,42.9,34.7,70.3,34.7c24.5,0,45.4-10.3,62.8-30.8c13.1,19.7,32.4,29.5,57.9,29.5c37.5,0,69.9-16.3,97.2-49
		c27.3-32.6,41-72,41-118.1C488.05,152.9,465.75,103,420.95,61.8z M273.55,291.9c-11.3,15.2-24.8,22.9-40.5,22.9
		c-10.7,0-19.3-5.6-25.8-16.8c-6.6-11.2-9.9-25.1-9.9-41.8c0-20.6,4.6-37.2,13.8-49.8s20.6-19,34.2-19c11.8,0,22.3,4.7,31.5,14.2
		s13.8,22.1,13.8,37.9C290.55,259.2,284.85,276.6,273.55,291.9z"/>
</symbol>




<!-- === /SVG === -->

</svg>